<svg id="Layer_1" data-name="Layer 1" xmlns="http://www.w3.org/2000/svg" viewBox="0 0 171.29 48.18"><defs><style>.cls-1{fill:#3d5a80;}.cls-2{fill:#28378c;}.cls-3{fill:#d69500;}</style></defs><path class="cls-1" d="M138.74,17.38a1,1,0,0,1,0,.71.91.91,0,0,1-.52.5.8.8,0,0,1-.34.07.89.89,0,0,1-.52-.16.9.9,0,0,1-.34-.43L135.36,14h-5.54l-1.65,4.09a.9.9,0,0,1-.5.51,1,1,0,0,1-.72,0,.94.94,0,0,1-.51-1.21l5.29-13.15a.89.89,0,0,1,.86-.58.93.93,0,0,1,.52.15,1,1,0,0,1,.35.43Zm-4.12-5.26-2-5-2,5Z"/><path class="cls-1" d="M145.59,7.43a5.27,5.27,0,0,1,3.9,1.65,5.45,5.45,0,0,1,1.61,4,5.43,5.43,0,0,1-1.61,4,5.44,5.44,0,0,1-7.55.23v4.28a.9.9,0,0,1-.27.66.93.93,0,0,1-.66.27.92.92,0,0,1-.93-.93V8.37a.9.9,0,0,1,.27-.66.91.91,0,0,1,.66-.28.94.94,0,0,1,.66.28.9.9,0,0,1,.27.66v.48A5.24,5.24,0,0,1,145.59,7.43Zm0,9.36a3.54,3.54,0,0,0,2.59-1.09,3.68,3.68,0,0,0,1.06-2.65,3.67,3.67,0,0,0-1.06-2.65,3.59,3.59,0,0,0-5.17,0,3.64,3.64,0,0,0-1.07,2.65A3.65,3.65,0,0,0,143,15.7,3.53,3.53,0,0,0,145.59,16.79Z"/><path class="cls-1" d="M158.19,7.44a1,1,0,0,1,.94.94,1,1,0,0,1-.94.93,3,3,0,0,0-2.33,1.1,3.89,3.89,0,0,0-1,2.65v4.67a.92.92,0,0,1-.92.93.94.94,0,0,1-.67-.27.9.9,0,0,1-.27-.66V8.38a.9.9,0,0,1,.27-.66,1,1,0,0,1,.67-.28.94.94,0,0,1,.92.94v.37A4.74,4.74,0,0,1,158.19,7.44Z"/><path class="cls-1" d="M161.41,3.67a1.22,1.22,0,0,1,.58.15,1.12,1.12,0,0,1,.45.44,1.19,1.19,0,0,1,.17.6,1.27,1.27,0,0,1-.16.59,1.12,1.12,0,0,1-.45.44,1.14,1.14,0,0,1-.59.16,1.16,1.16,0,0,1-.59-.16,1,1,0,0,1-.44-.44,1.19,1.19,0,0,1,0-1.19,1,1,0,0,1,.45-.44A1.22,1.22,0,0,1,161.41,3.67Zm0,3.77a1,1,0,0,1,.94.94v9.35a.91.91,0,0,1-.28.66.9.9,0,0,1-.66.27.86.86,0,0,1-.65-.27.87.87,0,0,1-.28-.66V8.38a1,1,0,0,1,.93-.94Z"/><path class="cls-1" d="M165.83,3.65a.92.92,0,0,1,.92.93V17.73a.92.92,0,0,1-.92.93.94.94,0,0,1-.67-.27.9.9,0,0,1-.27-.66V4.58a.9.9,0,0,1,.27-.66A.94.94,0,0,1,165.83,3.65Z"/><path class="cls-1" d="M131,30V42.35a.85.85,0,0,1-.26.62.87.87,0,0,1-1.49-.62V33.24l-.44.75a.87.87,0,0,1-.53.41,1,1,0,0,1-.24,0,.83.83,0,0,1-.42-.11.84.84,0,0,1-.41-.53,1,1,0,0,1,0-.23,1,1,0,0,1,.11-.44l2.07-3.58a.79.79,0,0,1,.7-.44,1,1,0,0,1,.29,0A.79.79,0,0,1,131,30Z"/><path class="cls-1" d="M137.66,33.68a4.77,4.77,0,1,1-3.37,8.15,4.76,4.76,0,0,1-.52-6.13l3.78-6.19a.84.84,0,0,1,.54-.39.78.78,0,0,1,.22,0,1,1,0,0,1,.45.13.92.92,0,0,1,.42.76.9.9,0,0,1-.13.45l-2,3.29A4.68,4.68,0,0,1,137.66,33.68Zm0,7.79a3,3,0,0,0,3-3,2.94,2.94,0,0,0-.88-2.14,3,3,0,1,0-2.14,5.16Z"/><path class="cls-1" d="M152.13,35.28a.81.81,0,0,1,.61.25.86.86,0,0,1,.26.63.85.85,0,0,1-.26.61.82.82,0,0,1-.61.26h-6.95a.88.88,0,0,1-.62-1.5.84.84,0,0,1,.62-.25Z"/><path class="cls-1" d="M158.75,30V42.35a.84.84,0,0,1-.25.62.88.88,0,0,1-.63.25.86.86,0,0,1-.62-.25.89.89,0,0,1-.25-.62V33.24l-.44.75a.85.85,0,0,1-.52.41,1,1,0,0,1-.25,0,.83.83,0,0,1-.42-.11.84.84,0,0,1-.41-.53,1,1,0,0,1,0-.23.88.88,0,0,1,.12-.44l2.06-3.58a.81.81,0,0,1,.71-.44,1,1,0,0,1,.29,0A.78.78,0,0,1,158.75,30Z"/><path class="cls-1" d="M169.46,29.09a.82.82,0,0,1,.74.42.79.79,0,0,1,.14.45.85.85,0,0,1-.1.4L164,42.74a.83.83,0,0,1-.79.48,1,1,0,0,1-.39-.08.89.89,0,0,1-.43-.52.92.92,0,0,1-.05-.28.75.75,0,0,1,.1-.38L168,30.85H161.5a.88.88,0,0,1,0-1.76Z"/><rect class="cls-2" x="119.26" y="3.79" width="1" height="39.3"/><path class="cls-1" d="M14.38,27.18a1,1,0,0,1,.22.63V41.73a.94.94,0,0,1-.28.69,1,1,0,0,1-1.4,0,.94.94,0,0,1-.28-.69V32.31q-.93,2.84-1.87,5.13L8.9,42.05a.92.92,0,0,1-.92.61.91.91,0,0,1-.91-.61L5.2,37.44c-.63-1.53-1.25-3.21-1.87-5v9.31a.94.94,0,0,1-.29.69.92.92,0,0,1-.69.3.94.94,0,0,1-.7-.3.94.94,0,0,1-.28-.69V27.81a1,1,0,0,1,.22-.63,1,1,0,0,1,.57-.33.65.65,0,0,1,.19,0,.93.93,0,0,1,.46.12.9.9,0,0,1,.44.5Q6.81,36.17,8,39.5q1.18-3.33,4.73-12a.94.94,0,0,1,.44-.5,1,1,0,0,1,.47-.12.55.55,0,0,1,.18,0A1.06,1.06,0,0,1,14.38,27.18Z"/><path class="cls-1" d="M18.49,41.81a5,5,0,0,1-1.93-2.34.9.9,0,0,1,0-.72.94.94,0,0,1,.52-.5.86.86,0,0,1,.72,0,.9.9,0,0,1,.5.51,3.24,3.24,0,0,0,1.23,1.49,3.31,3.31,0,0,0,1.88.58,2.88,2.88,0,0,0,2-.75,2.33,2.33,0,0,0,.84-1.8,2,2,0,0,0-.72-1.68,8.3,8.3,0,0,0-2.39-.93,9.51,9.51,0,0,1-2.94-1.21,3.65,3.65,0,0,1-1.53-3.16,4.15,4.15,0,0,1,1.38-3.13,4.73,4.73,0,0,1,3.35-1.3,4.66,4.66,0,0,1,2.89.94A4.73,4.73,0,0,1,26,30.34a.94.94,0,0,1-1.35,1.09.87.87,0,0,1-.45-.56,2.82,2.82,0,0,0-2.81-2.11,3,3,0,0,0-2,.74,2.35,2.35,0,0,0-.84,1.81,1.91,1.91,0,0,0,.73,1.63,7.68,7.68,0,0,0,2.36.92,10.09,10.09,0,0,1,3,1.22,3.72,3.72,0,0,1,1.53,3.21,4.13,4.13,0,0,1-1.39,3.13,4.73,4.73,0,0,1-3.34,1.3A5.11,5.11,0,0,1,18.49,41.81Z"/><path class="cls-1" d="M37.13,26.88a.94.94,0,0,1,.69.28,1,1,0,0,1,.28.69V41.73a.88.88,0,0,1-.72.94,1.26,1.26,0,0,1-.33,0,.87.87,0,0,1-.77-.5q-4.66-8-6.23-11.25V41.74a1,1,0,0,1-.28.69,1,1,0,0,1-1.4,0,.94.94,0,0,1-.28-.69V27.87a.89.89,0,0,1,.72-.95,1.24,1.24,0,0,1,.33,0,.87.87,0,0,1,.78.49q4.66,8,6.22,11.13V27.85a1,1,0,0,1,.3-.69A.92.92,0,0,1,37.13,26.88Z"/><path class="cls-1" d="M48.09,28.85A5.52,5.52,0,0,0,44,30.59,6,6,0,0,0,44,39a5.52,5.52,0,0,0,4.11,1.74,5.8,5.8,0,0,0,4.82-2.61.9.9,0,0,1,.62-.42l.21,0a1,1,0,0,1,.52.16.89.89,0,0,1,.42.63.75.75,0,0,1,0,.21,1,1,0,0,1-.15.52,7.75,7.75,0,0,1-6.46,3.5,7.45,7.45,0,0,1-5.5-2.32,8,8,0,0,1,0-11.19,7.42,7.42,0,0,1,5.5-2.33,7.6,7.6,0,0,1,3.66.93,7.75,7.75,0,0,1,2.8,2.57,1,1,0,0,1,.17.54.75.75,0,0,1,0,.2,1,1,0,0,1-.42.63,1,1,0,0,1-.52.15.78.78,0,0,1-.22,0,.9.9,0,0,1-.62-.42,5.8,5.8,0,0,0-4.82-2.61Z"/><path class="cls-1" d="M65.13,33.81a1,1,0,0,1,1,1,1,1,0,0,1-.28.69.94.94,0,0,1-.69.28H57.35a.94.94,0,0,1-.7-.28,1,1,0,0,1-.29-.69,1,1,0,0,1,1-1Z"/><path class="cls-1" d="M76.94,41a.89.89,0,0,1,0,1.77h-7.8a.84.84,0,0,1-.82-.55,1,1,0,0,1-.07-.37.87.87,0,0,1,.27-.6l6-5.91a3.13,3.13,0,0,0,1.11-2.24,2.82,2.82,0,1,0-5.63,0,.82.82,0,0,1-.26.62.91.91,0,0,1-1.25,0,.85.85,0,0,1-.26-.62,4.59,4.59,0,1,1,9.17,0,4.82,4.82,0,0,1-1.64,3.51L71.3,41Z"/><path class="cls-1" d="M84.58,28.46a4.9,4.9,0,0,1,4.88,4.88v4.5a4.9,4.9,0,0,1-4.88,4.88,4.88,4.88,0,0,1-4.88-4.88v-4.5a4.88,4.88,0,0,1,4.88-4.88Zm3.1,4.88a3.09,3.09,0,0,0-3.1-3.11,3,3,0,0,0-2.19.91,3,3,0,0,0-.92,2.2v4.5a3,3,0,0,0,.92,2.2,3,3,0,0,0,2.19.91,3.09,3.09,0,0,0,3.1-3.11Z"/><path class="cls-1" d="M100.19,41a.89.89,0,0,1,0,1.77h-7.8a.82.82,0,0,1-.81-.55.85.85,0,0,1-.08-.37.87.87,0,0,1,.27-.6l6-5.91a3.13,3.13,0,0,0,1.11-2.24,2.81,2.81,0,1,0-5.62,0,.83.83,0,0,1-.27.62.91.91,0,0,1-1.25,0,.85.85,0,0,1-.26-.62,4.59,4.59,0,1,1,9.17,0A4.82,4.82,0,0,1,99,36.56L94.55,41Z"/><path class="cls-1" d="M107.77,33.08a4.82,4.82,0,1,1,0,9.64A4.81,4.81,0,0,1,103,37.9a4.69,4.69,0,0,1,.88-2.78l3.82-6.24a.84.84,0,0,1,.55-.4.75.75,0,0,1,.21,0,.87.87,0,0,1,.46.13.83.83,0,0,1,.39.55.76.76,0,0,1,0,.21.87.87,0,0,1-.13.46l-2,3.32A4.72,4.72,0,0,1,107.77,33.08Zm0,7.87a3,3,0,0,0,3-3.05,3.05,3.05,0,0,0-6.1,0,3.06,3.06,0,0,0,3,3.05Z"/><path class="cls-3" d="M9.64,6.2A6,6,0,0,0,5.15,8.1a6.35,6.35,0,0,0-1.87,4.61,6.34,6.34,0,0,0,1.87,4.6,6.08,6.08,0,0,0,4.49,1.9,6.09,6.09,0,0,0,3-.76,6.23,6.23,0,0,0,2.29-2.1,1,1,0,0,1,.68-.45.91.91,0,0,1,.23,0,1.08,1.08,0,0,1,1,.86.93.93,0,0,1,0,.23,1,1,0,0,1-.17.57,8.33,8.33,0,0,1-3.06,2.81,8.23,8.23,0,0,1-4,1,8.09,8.09,0,0,1-6-2.53,8.38,8.38,0,0,1-2.5-6.11,8.39,8.39,0,0,1,2.5-6.12A8.07,8.07,0,0,1,9.64,4a8.24,8.24,0,0,1,4,1A8.42,8.42,0,0,1,16.7,7.87a1,1,0,0,1,.19.59.89.89,0,0,1,0,.22,1,1,0,0,1-.46.68,1,1,0,0,1-.57.17,1.06,1.06,0,0,1-.92-.48A6.29,6.29,0,0,0,12.62,7,6.09,6.09,0,0,0,9.64,6.2Z"/><path class="cls-3" d="M28.26,4a1,1,0,0,1,.75.32,1,1,0,0,1,.31.75V20.27a1.08,1.08,0,0,1-1.06,1.08,1.06,1.06,0,0,1-.77-.32,1,1,0,0,1-.31-.76V13.72H21.06v6.55a1,1,0,0,1-.31.76,1.07,1.07,0,0,1-1.53,0,1.06,1.06,0,0,1-.3-.76V5.06a1.07,1.07,0,0,1,1.83-.75,1,1,0,0,1,.31.75v6.51h6.12V5.06a1,1,0,0,1,.31-.75A1,1,0,0,1,28.26,4Z"/><path class="cls-3" d="M34.22,6.14v5.43h6a1.08,1.08,0,0,1,1.07,1.08,1.08,1.08,0,0,1-1.07,1.07h-6v5.49h7.19a1,1,0,0,1,.76.31,1,1,0,0,1,.31.75,1,1,0,0,1-.31.76,1.05,1.05,0,0,1-.76.32H33.15a1.08,1.08,0,0,1-1.08-1.08V5.06A1.08,1.08,0,0,1,33.15,4h8.26a1.08,1.08,0,0,1,1.07,1.07,1.08,1.08,0,0,1-1.07,1.08Z"/><path class="cls-3" d="M58.71,4.38a1,1,0,0,1,.24.68V20.27a1,1,0,0,1-.31.76,1.06,1.06,0,0,1-.77.32,1.08,1.08,0,0,1-1.06-1.08V10q-1,3.09-2,5.61l-2.05,5a1.09,1.09,0,0,1-2,0l-2-5q-1-2.52-2-5.49V20.27a1,1,0,0,1-.31.76,1.06,1.06,0,0,1-1.52,0,1,1,0,0,1-.31-.76V5.06a1,1,0,0,1,.24-.68A1.1,1.1,0,0,1,45.36,4a.68.68,0,0,1,.2,0,1,1,0,0,1,.51.13,1,1,0,0,1,.48.54q3.87,9.54,5.17,13.17Q53,14.2,56.89,4.66a1,1,0,0,1,.48-.54,1,1,0,0,1,.5-.13.75.75,0,0,1,.21,0A1.13,1.13,0,0,1,58.71,4.38Z"/><path class="cls-3" d="M62.89,4A1.08,1.08,0,0,1,64,5.06V20.27a1,1,0,0,1-.31.76,1.06,1.06,0,0,1-1.52,0,1,1,0,0,1-.31-.76V5.06A1.08,1.08,0,0,1,62.89,4Z"/><path class="cls-3" d="M68.33,20.37a5.56,5.56,0,0,1-2.11-2.56,1,1,0,0,1,0-.79,1,1,0,0,1,.56-.55,1,1,0,0,1,.79,0,1,1,0,0,1,.55.56,3.48,3.48,0,0,0,1.34,1.63,3.66,3.66,0,0,0,2.05.63,3.16,3.16,0,0,0,2.2-.81,2.58,2.58,0,0,0,.92-2,2.14,2.14,0,0,0-.79-1.83,8.84,8.84,0,0,0-2.61-1A10.28,10.28,0,0,1,68,12.34a4,4,0,0,1-1.68-3.46,4.5,4.5,0,0,1,1.52-3.41,5.26,5.26,0,0,1,8.7,2.36,1.06,1.06,0,0,1-.08.78,1,1,0,0,1-1.4.41,1,1,0,0,1-.5-.62,3.07,3.07,0,0,0-1.13-1.68,3.1,3.1,0,0,0-1.94-.62,3.22,3.22,0,0,0-2.2.81,2.56,2.56,0,0,0-.91,2,2.08,2.08,0,0,0,.79,1.79,8.94,8.94,0,0,0,2.57,1A10.7,10.7,0,0,1,75,13a4.08,4.08,0,0,1,1.67,3.5,4.53,4.53,0,0,1-1.51,3.42,5.15,5.15,0,0,1-3.66,1.42A5.65,5.65,0,0,1,68.33,20.37Z"/><path class="cls-3" d="M88.18,4a1,1,0,0,1,.77.33,1,1,0,0,1,.31.75A1.08,1.08,0,0,1,88.18,6.2h-3.7V20.27a1,1,0,0,1-.33.76,1,1,0,0,1-.75.32,1.08,1.08,0,0,1-1.07-1.08V6.2h-3.7a1.08,1.08,0,0,1-1.08-1.08,1,1,0,0,1,.31-.75A1,1,0,0,1,78.63,4Z"/><path class="cls-3" d="M100.88,8.7V9a4.52,4.52,0,0,1-1.15,3.28,5.23,5.23,0,0,1-3.28,1.42l4.22,6a1.07,1.07,0,0,1,.2.62,1.1,1.1,0,0,1,0,.18,1,1,0,0,1-.43.69,1.08,1.08,0,0,1-.62.19,1,1,0,0,1-.88-.44l-5.33-7.59a1,1,0,0,1-.21-.61,1,1,0,0,1,.13-.5,1,1,0,0,1,.95-.58c1.92,0,3.17-.29,3.72-.87A2.49,2.49,0,0,0,98.73,9V8.78A3,3,0,0,0,98.16,7a2.14,2.14,0,0,0-1.8-.84H92.89V20.29a1,1,0,0,1-.31.75,1,1,0,0,1-.76.31,1.06,1.06,0,0,1-.77-.31,1,1,0,0,1-.3-.75V5.12a1,1,0,0,1,.3-.75A1,1,0,0,1,91.82,4h4.54a4.18,4.18,0,0,1,3.35,1.49A5.09,5.09,0,0,1,100.88,8.7Z"/><path class="cls-3" d="M113,4.76a.92.92,0,0,1,.07.36,1.07,1.07,0,0,1-.11.46l-4.69,9.66v5a1.09,1.09,0,0,1-1.08,1.08,1,1,0,0,1-.75-.32,1,1,0,0,1-.31-.76v-5l-4.69-9.66a1,1,0,0,1-.12-.46,1.15,1.15,0,0,1,.07-.36,1.11,1.11,0,0,1,1-.73,1.27,1.27,0,0,1,.37.07,1,1,0,0,1,.6.54l3.83,7.9L111,4.64a1,1,0,0,1,.62-.54A1.15,1.15,0,0,1,112,4a1,1,0,0,1,.45.12A1,1,0,0,1,113,4.76Z"/></svg>